<?xml version="1.0" encoding="utf-8"?>
<!-- Generator: Adobe Illustrator 15.0.3, SVG Export Plug-In . SVG Version: 6.00 Build 0)  -->
<!DOCTYPE svg PUBLIC "-//W3C//DTD SVG 1.1//EN" "http://www.w3.org/Graphics/SVG/1.1/DTD/svg11.dtd">
<svg version="1.1" id="Layer_1" xmlns="http://www.w3.org/2000/svg" xmlns:xlink="http://www.w3.org/1999/xlink" x="0px" y="0px"
	 width="100px" height="100px" viewBox="0 0 100 100" enable-background="new 0 0 100 100" xml:space="preserve">
<linearGradient id="SVGID_1_" gradientUnits="userSpaceOnUse" x1="52.9287" y1="48.293" x2="49.073" y2="103.4318">
	<stop  offset="0" style="stop-color:#8CC63F"/>
	<stop  offset="0.5273" style="stop-color:#04AD04"/>
</linearGradient>
<path fill="url(#SVGID_1_)" d="M99.463,53.48c-0.975,0.082-2.778,9.235-4.993,18.983c-0.503,2.684-0.94,5.375-1.22,7.901
	c-0.029-1.414-0.096-2.847-0.271-4.309c-0.475-3.795-1.156-7.348-1.35-10.029c-0.174-2.663,0-4.464-0.473-4.58
	c-0.367-0.097-1.435,1.627-2.043,4.464c-0.59,2.826-0.593,6.632-0.698,10.282c-0.078,2.168-0.34,4.269-0.658,6.253
	c-0.919-2.855-1.865-5.827-2.871-9.033c-0.087-0.251-0.165-0.482-0.232-0.726c1.005-5.257,1.43-9.343,0.85-9.487
	c-0.491-0.126-1.429,1.655-2.618,4.347c-1.072-3.177-2.066-6.157-2.792-8.611c-1.16-3.906-1.758-6.568-2.465-6.568
	c-0.617-0.006-1.275,2.754-1.218,6.97c0.009,0.625,0.067,1.336,0.107,2.014c-0.05,0.155-0.079,0.281-0.126,0.445
	c-0.977,3.301-2.532,7.639-4.31,12.054l-0.853,2.149c-0.307-1.443-0.655-2.855-0.906-4.299c-0.929-5.509-1.055-10.92-0.919-15.151
	c0.097-4.26-0.337-7.169-1.005-7.174c-0.687-0.015-1.535,2.652-2.813,6.764c-1.303,4.118-2.3,7.856-2.213,13.764
	C63.413,74.22,63.886,80,64.398,80h-0.638l-0.387-1.812c-0.976-9.391-1.951-17.528-3.12-17.673
	c-0.097-1.453-0.224-2.293-0.338-3.533c-0.469-4.139-2.074-6.461-2.658-6.268c-0.628,0.185-0.314,2.834-0.952,6.673
	c-0.542,2.982-1.001,6.874-1.777,10.775c-0.267-7.799-2.031-14.033-3.069-13.839c-1.101,0.184-0.845,7.927-3.356,17.937
	C47.314,75.862,46.425,80,45.347,80h-0.256c0.31,0,0.932-5.141,1.556-9.361l1.019-6.311c0.354-2.496,0.294-4.247,0.251-6.105
	c-0.169-3.724,0.102-5.833-0.473-6.012c-0.565-0.179-2.039,2.363-2.928,6.149c-0.744,3.728-2.416,8.331-3.967,13.433
	c-1.169,3.776-2.286,7.685-3.074,11.267c-0.013-0.116-0.057-0.2-0.072-0.316l-0.885-7.19c-0.656-4.813-1.12-9.459-1.1-12.963
	c-0.024-3.505,0.41-5.833-0.166-5.991c-0.512-0.161-2.063,2.013-3.072,5.662c-0.252,0.862-0.46,1.811-0.644,2.808
	c0.073-2.158,0.054-4.207-0.202-5.939c-0.474-3.896-1.126-6.38-1.73-6.39c-0.633-0.015-1.164,2.562-1.75,6.332
	c-0.208,1.563-0.633,3.394-1.077,5.251c-0.189-3.756-0.575-6.277-1.04-6.354c-1.329-0.189-2.807,7.104-4.812,16.135
	C20.28,76.941,19.304,80,18.257,80h-1.189c0.594,0,1.111-4.754,1.435-8.413c0.845-9.624-0.314-17.851-1.387-17.819
	c-1.169,0.008-2.058,7.535-4.315,16.645C11.796,74.449,10.709,80,9.623,80H9.418c-0.609,0-1.072-6.362-1.096-11.163
	c-0.604-11.771,3.832-21.547,2.846-22.051c-0.58-0.271-2.985,2.631-5.175,6.881c-2.26,4.221-4.111,10.543-4.975,16.721
	C0.07,76.459-0.274,83.126,0.084,87.869C0.161,89.128,0,90.348,0,91.354v0.058V100h4.825h3.077h5.252h2.166h14.842h25.357h7.662
	h0.726h5.335h1.873c0.135,0,0.272,0,0.397,0h3.644h9.073h5.296H100v-4.087V53.707C100,53.625,99.561,53.48,99.463,53.48z
	 M78.729,77.486L75.666,84H75.29c0.752-4,1.479-5.854,2.309-9.127c0.164-0.695,0.252-1.271,0.406-1.988
	c0.097,0.531,0.174,1.102,0.271,1.634l0.512,2.903C78.768,77.461,78.748,77.438,78.729,77.486z"/>
</svg>
